<svg width="272" height="166" viewBox="0 0 272 166" fill="none" xmlns="http://www.w3.org/2000/svg">
<path d="M58 165.7L58.4 161.7L57.6 157.7L56.6 156.3L55.1 156L52.9 155.8L50.9 155L50.2 153.4L50.7 151.6L51.9 150.7L51.7 148.8L50.2 147.9L48.4 147.1L45.2 144.1L43.8 143.1L42.4 141.8L40.3 138.8L37.9 136.3L34.6 134L31.6 131.2L27.6 128.6L15.4 126H10.7L8.60001 125.2L6.79999 123.7L5.60001 122.5L4.60001 121.2L5.89999 117.9L6.29999 114.3L5.70001 112.1L4.5 110.3V108.2L6.60001 107.6L8.10001 105.6L8.29999 102.8L10.3 99.6999L10.2 95L9.10001 90.2999L10.1 86.2999L11.7 85.3999L15 84.1L18 82.1999L18.4 80.1999L14.9 77.1999L13.8 75.6L12.2 74.8999L8.89999 72.1L6 68.3999L2.29999 65.3999L1 60.8999L9.29999 55.3999L13 51.5999L17.1 46.2L17.3 44.7999L17.1 43.5999L17 42.3999L17.8 39.0999L19.2 36.2L22.8 30.2L23.2 27.7999L22.4 27.2999L20.9 25.7999L21.1 25L21.4 24.2L22 20.2L24.8 20.5L28.6 19.7999L29.3 18.8999L29.6 17.0999L29.8 15.2999L31.8 16.2L33.9 17.5L40.7 23.2L42.4 23.7L47.4 22.2L49.8 21.8999L53.8 23.2999L55.4 24.2L57.1 25.7999L59.1 26L61.9 23.5999L64.9 22.2L68.5 23.7L70.6 22.5L72.4 20.2L77.2 16.2L79.5 16.8999L82.2 19.0999L84.3 19.3999L85 18.2999L85.4 15.0999L85.9 13.5L86.8 12.2H88.8L90.9 13.7999L91.7 14.2999L94.4 15.0999L99.1 18.5L101.6 24.3999L101.9 27.7L101.7 31L101.1 34.5999L101.2 38.0999L102.2 40.5999L103.5 42.8999L105 45.0999L106 47.5L105.1 49.2L102.4 52.2999L101.3 54.2999L100.6 59.0999L98.9 61.7L97.8 64.8999L97.5 67.2L96.8 69.1999L96.4 74.1999L98.2 78.7999L98.8 79.2999L99.3 79.8999L99.7 82.3999L100.4 84.6999L103.6 88.6999L105.5 90.5L107.6 90.6L113.2 89.3999L120.6 88.8999L124.4 89L128.1 88.1L131.8 86.6L135.4 85.7999L138.9 86.3999L139.6 89.5L141.1 91.8999L143.4 92.7999L145.6 94L147.4 96.6L149.1 99.5L151 101.3L152.5 103.5L153 106.9L151.9 110L150.8 111.3L150.1 112.9L149.8 115.6V117.3L151.6 119.9L152.8 120.9L154.6 122.8L155.7 125.4L155.1 127.3L154.2 127.9L151.7 128.8L150.3 129.5L148.2 131.6L145.5 132.9L141.3 134.4L140 135.2L138.4 137.1L137.3 134.8L134.1 129.4L131.3 126.3L127.4 122.2L122.1 116.3L121 112.5L121.2 111.6L120.8 108.6L118.9 107.9L114.2 107.7L112 109.1L110.6 110.9L108.3 114L103.5 115.8L96.1 116.3L89 117.2L84.5 119L82 121.8L76.4 128L70.7 135.9L66.2 141.7L65 145.7L65.3 147.8L68.2 149.1L71.1 149.3L71.8 150.9L71.6 152.7L70.2 154.9L63.4 161.6L58 165.7Z" fill="#FAAD1A" stroke="white" stroke-width="0.5" stroke-linecap="round" stroke-linejoin="round"/>
<path d="M168.9 123.2L165.6 122.4L162.3 123.8L160.8 124.7L159.2 125.3L155.7 125.4L154.6 122.8L152.8 120.9L151.6 119.9L149.8 117.3V115.6L150.1 112.9L150.8 111.3L151.9 110L153 106.9L152.5 103.5L151 101.3L149.1 99.5L147.4 96.6L145.6 94L143.4 92.8L141.1 91.9L139.6 89.5L138.9 86.4L154.6 63L157.3 63.4L161.4 62.2L164.1 62.1L165.4 62.8L167.4 64.8L169.8 65.5L174.8 63.6L178.1 72.8L180.9 75.7L188.6 75.8L189.9 79.9L189.4 82.4L189.7 85L190.6 87.1L191.1 89.3L188.9 90.7L188.7 93.8L187.9 97.4L181.7 103.7L177 104.5L174.6 103.7L172.2 103.5L170.7 105.7L170.9 108.7L172.1 111.7L172.4 113.4L171.7 115.9L171 116.6L170.3 117.2L169.1 119.1L168.9 120.4V123.2Z" fill="#FAAD1A" stroke="white" stroke-width="0.5" stroke-linecap="round" stroke-linejoin="round"/>
<path d="M250.3 67L248.3 64.9L247.1 61.7L245.3 58.9L242.8 57.8L239 58.8L235.3 60.9L233.3 62.6L231.2 67.6L229.9 69.5L227.9 73.6L225.3 77.1L207.7 89.3L208.7 100.3L206.2 101.5L200.4 99.2L196.1 98.1L187.9 97.4L188.7 93.8L188.9 90.7L191.1 89.3L190.6 87.1L189.7 85L189.4 82.4L189.9 79.9L188.6 75.8L180.9 75.7L178.1 72.8L174.8 63.6L176.1 61L178 59L182.2 52.3L182.4 49.4L181.9 46.6L182.1 43.8L178.8 39.5L176.6 35.1L177.9 32L178.9 28.7V27.2L179 25.7L179.5 24.4L180.2 23.3L190.9 25L196.3 21.6L198.4 20.9L213.8 10.9L217.8 5.29999L220.3 5.5L222.6 6.7L223 7.29999L223.6 8.59999L224 9.09999L225.5 9.7L227.1 9.89999L231.6 13.2L236.3 13.9L239.9 12.6L247.8 13.7L250.1 15.5L252.5 16.3L256.8 14.9H261.2L265.3 15.6L269.1 17.7L270.8 23.1L268.8 28.9L267.7 31.1L266.8 33.4L265.5 38.2L263.6 43.8L263.4 44.8L263.1 45.7L261.9 47.7L261.8 50.2L260.2 51.2L259.3 53.1L258.7 56.3L257.2 58.7L253.5 63L252 65.2L250.3 67Z" fill="#FAAD1A" stroke="white" stroke-width="0.5" stroke-linecap="round" stroke-linejoin="round"/>
<path d="M106 47.5L110.1 46.3999L114 44.2L118.2 43L122.4 43.2L124.2 42.2999L128.2 38.5L128.3 34.8999L126.4 29.7999L128 25.7L128.7 26.7L130.6 27.0999L131.7 27L133.5 27.7999L134.2 30.2999L136.1 31.8999L138.5 30.5L139.5 30.2L141.5 30.5L142.5 30.2999L142 32.7999L143.6 38.2L142.8 41.2999L141.1 44L141.8 47.0999L144 48.5L146.4 49.2L148.4 48.7999L149.4 49.0999L149.8 51.8999L148.4 55V57.8999L149.3 58.7L151.2 60.2L152.8 61.8999L154.6 63L138.9 86.3999L135.4 85.7999L131.8 86.6L128.1 88.1L124.4 89L120.6 88.8999L113.2 89.3999L107.6 90.6L105.5 90.5L103.6 88.6999L100.4 84.6999L99.7 82.3999L99.3 79.8999L98.8 79.2999L98.2 78.7999L96.4 74.1999L96.8 69.1999L97.5 67.2L97.8 64.8999L98.9 61.7L100.6 59.0999L101.3 54.2999L102.4 52.2999L105.1 49.2L106 47.5Z" fill="#FAAD1A" stroke="white" stroke-width="0.5" stroke-linecap="round" stroke-linejoin="round"/>
<path d="M174.8 63.6L169.8 65.5L167.4 64.8L165.4 62.8L164.1 62.1L161.4 62.2L157.3 63.4L154.6 63L152.8 61.9L151.2 60.2L149.3 58.7L148.4 57.9V55L149.8 51.9L149.4 49.1L148.4 48.8L146.4 49.2L144 48.5L141.8 47.1L141.1 44L142.8 41.3L143.6 38.2L142 32.8L142.5 30.3L147.8 34.8L149.7 34.3L149.5 32.9L149 30.2L150 26.9L155.7 24.5L158.3 22.9L161.3 21.6L163.2 19L162.2 16.7L160.8 14.2L161.4 10.2L160.8 7.09999L159.8 5.2L159.4 3L159.6 1.59999L160.6 1L163.6 1.79999L166.4 1.29999L167.1 1.5L168.5 2.09999L168.9 2.89999L169.1 4.2L169.5 5.39999L170.7 6.79999L172.2 7.59999L173.2 9.5L173.8 11.9L177.6 14.3L178.7 16.2L178.2 17.6L178.4 19L178.8 20.3L179.5 21.8L180.2 23.3L179.5 24.4L179 25.7L178.9 27.2V28.7L177.9 32L176.6 35.1L178.8 39.5L182.1 43.8L181.9 46.6L182.4 49.4L182.2 52.3L178 59L176.1 61L174.8 63.6Z" fill="#FAAD1A" stroke="white" stroke-width="0.5" stroke-linecap="round" stroke-linejoin="round"/>
<path d="M126.269 45C121.702 45 118 48.6487 118 53.1497C118 54.5479 118.357 55.8625 118.986 57.01C120.036 58.9319 123.626 64.4216 125.345 67.0258C126.175 67.8029 126.988 67.2041 127.197 67.0258C128.904 64.4272 132.469 58.9597 133.528 57.0657C134.177 55.9043 134.544 54.5674 134.544 53.1497C134.539 48.6487 130.837 45 126.269 45ZM132.235 56.5198C131.23 58.2188 127.682 63.8813 126.59 65.622C126.361 65.7028 126.147 65.6917 125.949 65.622C124.866 63.8868 121.34 58.2439 120.328 56.5644C119.724 55.5589 119.376 54.3863 119.376 53.1357C119.376 49.4035 122.462 46.3759 126.267 46.3759C130.071 46.3759 133.157 49.4007 133.157 53.1357C133.16 54.3696 132.823 55.5255 132.235 56.5198Z" fill="#354D37"/>
<path d="M126.269 56.7287C124.298 56.7287 122.693 55.1244 122.693 53.1524C122.693 51.1805 124.298 49.5762 126.269 49.5762C128.241 49.5762 129.846 51.1805 129.846 53.1524C129.846 55.1244 128.241 56.7287 126.269 56.7287ZM126.269 50.9159C125.036 50.9159 124.033 51.9186 124.033 53.1524C124.033 54.3863 125.036 55.389 126.269 55.389C127.503 55.389 128.506 54.3863 128.506 53.1524C128.506 51.9186 127.503 50.9159 126.269 50.9159ZM126.233 70.4294C121.682 70.4294 118.251 68.7694 118.251 66.5662C118.251 65.2822 119.432 64.1375 121.493 63.4272C121.813 63.3158 122.164 63.4857 122.273 63.806C122.384 64.1263 122.214 64.4773 121.894 64.5859C120.404 65.1012 119.479 65.8588 119.479 66.5662C119.479 67.8112 122.253 69.2011 126.233 69.2011C130.213 69.2011 132.988 67.8112 132.988 66.5662C132.988 65.8588 132.06 65.1012 130.57 64.5859C130.25 64.4745 130.08 64.1263 130.191 63.806C130.303 63.4857 130.651 63.3158 130.971 63.4272C133.032 64.1375 134.216 65.285 134.216 66.569C134.216 68.7666 130.784 70.4294 126.233 70.4294Z" fill="#354D37"/>
<path d="M164.269 25C159.702 25 156 28.6487 156 33.1497C156 34.5479 156.357 35.8625 156.986 37.01C158.036 38.9319 161.626 44.4216 163.345 47.0258C164.175 47.8029 164.988 47.2041 165.197 47.0258C166.904 44.4272 170.469 38.9597 171.528 37.0657C172.177 35.9043 172.544 34.5674 172.544 33.1497C172.539 28.6487 168.837 25 164.269 25ZM170.235 36.5198C169.23 38.2188 165.682 43.8813 164.59 45.622C164.361 45.7028 164.147 45.6917 163.949 45.622C162.866 43.8868 159.34 38.2439 158.328 36.5644C157.724 35.5589 157.376 34.3863 157.376 33.1357C157.376 29.4035 160.462 26.3759 164.267 26.3759C168.071 26.3759 171.157 29.4007 171.157 33.1357C171.16 34.3696 170.823 35.5255 170.235 36.5198Z" fill="#354D37"/>
<path d="M164.269 36.7287C162.298 36.7287 160.693 35.1244 160.693 33.1524C160.693 31.1805 162.298 29.5762 164.269 29.5762C166.241 29.5762 167.846 31.1805 167.846 33.1524C167.846 35.1244 166.241 36.7287 164.269 36.7287ZM164.269 30.9159C163.036 30.9159 162.033 31.9186 162.033 33.1524C162.033 34.3863 163.036 35.389 164.269 35.389C165.503 35.389 166.506 34.3863 166.506 33.1524C166.506 31.9186 165.503 30.9159 164.269 30.9159ZM164.233 50.4294C159.682 50.4294 156.251 48.7694 156.251 46.5662C156.251 45.2822 157.432 44.1375 159.493 43.4272C159.813 43.3158 160.164 43.4857 160.273 43.806C160.384 44.1263 160.214 44.4773 159.894 44.5859C158.404 45.1012 157.479 45.8588 157.479 46.5662C157.479 47.8112 160.253 49.2011 164.233 49.2011C168.213 49.2011 170.988 47.8112 170.988 46.5662C170.988 45.8588 170.06 45.1012 168.57 44.5859C168.25 44.4745 168.08 44.1263 168.191 43.806C168.303 43.4857 168.651 43.3158 168.971 43.4272C171.032 44.1375 172.216 45.285 172.216 46.569C172.216 48.7666 168.784 50.4294 164.233 50.4294Z" fill="#354D37"/>
<path d="M165.269 67C160.702 67 157 70.6487 157 75.1497C157 76.5479 157.357 77.8625 157.986 79.01C159.036 80.9319 162.626 86.4216 164.345 89.0258C165.175 89.8029 165.988 89.2041 166.197 89.0258C167.904 86.4272 171.469 80.9597 172.528 79.0657C173.177 77.9043 173.544 76.5674 173.544 75.1497C173.539 70.6487 169.837 67 165.269 67ZM171.235 78.5198C170.23 80.2188 166.682 85.8813 165.59 87.622C165.361 87.7028 165.147 87.6917 164.949 87.622C163.866 85.8868 160.34 80.2439 159.328 78.5644C158.724 77.5589 158.376 76.3863 158.376 75.1357C158.376 71.4035 161.462 68.3759 165.267 68.3759C169.071 68.3759 172.157 71.4007 172.157 75.1357C172.16 76.3696 171.823 77.5255 171.235 78.5198Z" fill="#354D37"/>
<path d="M165.269 78.7287C163.298 78.7287 161.693 77.1244 161.693 75.1524C161.693 73.1805 163.298 71.5762 165.269 71.5762C167.241 71.5762 168.846 73.1805 168.846 75.1524C168.846 77.1244 167.241 78.7287 165.269 78.7287ZM165.269 72.9159C164.036 72.9159 163.033 73.9186 163.033 75.1524C163.033 76.3863 164.036 77.389 165.269 77.389C166.503 77.389 167.506 76.3863 167.506 75.1524C167.506 73.9186 166.503 72.9159 165.269 72.9159ZM165.233 92.4294C160.682 92.4294 157.251 90.7694 157.251 88.5662C157.251 87.2822 158.432 86.1375 160.493 85.4272C160.813 85.3158 161.164 85.4857 161.273 85.806C161.384 86.1263 161.214 86.4773 160.894 86.5859C159.404 87.1012 158.479 87.8588 158.479 88.5662C158.479 89.8112 161.253 91.2011 165.233 91.2011C169.213 91.2011 171.988 89.8112 171.988 88.5662C171.988 87.8588 171.06 87.1012 169.57 86.5859C169.25 86.4745 169.08 86.1263 169.191 85.806C169.303 85.4857 169.651 85.3158 169.971 85.4272C172.032 86.1375 173.216 87.285 173.216 88.569C173.216 90.7666 169.784 92.4294 165.233 92.4294Z" fill="#354D37"/>
<path d="M213.269 31C208.702 31 205 34.6487 205 39.1497C205 40.5479 205.357 41.8625 205.986 43.01C207.036 44.9319 210.626 50.4216 212.345 53.0258C213.175 53.8029 213.988 53.2041 214.197 53.0258C215.904 50.4272 219.469 44.9597 220.528 43.0657C221.177 41.9043 221.544 40.5674 221.544 39.1497C221.539 34.6487 217.837 31 213.269 31ZM219.235 42.5198C218.23 44.2188 214.682 49.8813 213.59 51.622C213.361 51.7028 213.147 51.6917 212.949 51.622C211.866 49.8868 208.34 44.2439 207.328 42.5644C206.724 41.5589 206.376 40.3863 206.376 39.1357C206.376 35.4035 209.462 32.3759 213.267 32.3759C217.071 32.3759 220.157 35.4007 220.157 39.1357C220.16 40.3696 219.823 41.5255 219.235 42.5198Z" fill="#354D37"/>
<path d="M213.269 42.7287C211.298 42.7287 209.693 41.1244 209.693 39.1524C209.693 37.1805 211.298 35.5762 213.269 35.5762C215.241 35.5762 216.846 37.1805 216.846 39.1524C216.846 41.1244 215.241 42.7287 213.269 42.7287ZM213.269 36.9159C212.036 36.9159 211.033 37.9186 211.033 39.1524C211.033 40.3863 212.036 41.389 213.269 41.389C214.503 41.389 215.506 40.3863 215.506 39.1524C215.506 37.9186 214.503 36.9159 213.269 36.9159ZM213.233 56.4294C208.682 56.4294 205.251 54.7694 205.251 52.5662C205.251 51.2822 206.432 50.1375 208.493 49.4272C208.813 49.3158 209.164 49.4857 209.273 49.806C209.384 50.1263 209.214 50.4773 208.894 50.5859C207.404 51.1012 206.479 51.8588 206.479 52.5662C206.479 53.8112 209.253 55.2011 213.233 55.2011C217.213 55.2011 219.988 53.8112 219.988 52.5662C219.988 51.8588 219.06 51.1012 217.57 50.5859C217.25 50.4745 217.08 50.1263 217.191 49.806C217.303 49.4857 217.651 49.3158 217.971 49.4272C220.032 50.1375 221.216 51.285 221.216 52.569C221.216 54.7666 217.784 56.4294 213.233 56.4294Z" fill="#354D37"/>
<path d="M55.2694 64C50.7016 64 47 67.6487 47 72.1497C47 73.5479 47.3565 74.8625 47.986 76.01C49.036 77.9319 52.6262 83.4216 54.3447 86.0258C55.1747 86.8029 55.988 86.2041 56.1969 86.0258C57.9043 83.4272 61.4694 77.9597 62.5278 76.0657C63.1768 74.9043 63.5444 73.5674 63.5444 72.1497C63.5389 67.6487 59.8372 64 55.2694 64ZM61.2354 75.5198C60.23 77.2188 56.6816 82.8813 55.5897 84.622C55.3613 84.7028 55.1469 84.6917 54.9491 84.622C53.8657 82.8868 50.3395 77.2439 49.3285 75.5644C48.7241 74.5589 48.3759 73.3863 48.3759 72.1357C48.3759 68.4035 51.462 65.3759 55.2666 65.3759C59.0713 65.3759 62.1574 68.4007 62.1574 72.1357C62.1602 73.3696 61.8231 74.5255 61.2354 75.5198Z" fill="#354D37"/>
<path d="M55.2695 75.7287C53.2975 75.7287 51.6932 74.1244 51.6932 72.1524C51.6932 70.1805 53.2975 68.5762 55.2695 68.5762C57.2414 68.5762 58.8458 70.1805 58.8458 72.1524C58.8458 74.1244 57.2414 75.7287 55.2695 75.7287ZM55.2695 69.9159C54.0356 69.9159 53.0329 70.9186 53.0329 72.1524C53.0329 73.3863 54.0356 74.389 55.2695 74.389C56.5034 74.389 57.506 73.3863 57.506 72.1524C57.506 70.9186 56.5034 69.9159 55.2695 69.9159ZM55.2333 89.4294C50.6822 89.4294 47.2507 87.7694 47.2507 85.5662C47.2507 84.2822 48.4317 83.1375 50.4928 82.4272C50.8131 82.3158 51.164 82.4857 51.2726 82.806C51.3841 83.1263 51.2142 83.4773 50.8938 83.5859C49.4037 84.1012 48.479 84.8588 48.479 85.5662C48.479 86.8112 51.2531 88.2011 55.2333 88.2011C59.2134 88.2011 61.9875 86.8112 61.9875 85.5662C61.9875 84.8588 61.06 84.1012 59.5699 83.5859C59.2496 83.4745 59.0797 83.1263 59.1911 82.806C59.3025 82.4857 59.6507 82.3158 59.971 82.4272C62.0321 83.1375 63.2158 84.285 63.2158 85.569C63.2158 87.7666 59.7844 89.4294 55.2333 89.4294Z" fill="#354D37"/>
</svg>
