<svg width="737" height="362" viewBox="0 0 737 362" fill="none" xmlns="http://www.w3.org/2000/svg">
<path d="M484.916 183.064C490.14 183.064 494.38 187.304 494.38 192.536C494.38 194.072 494.012 195.52 493.364 196.8C491.804 199.88 488.604 202 484.916 202C481.22 202 478.02 199.88 476.46 196.8C475.812 195.52 475.452 194.072 475.452 192.536C475.452 187.304 479.684 183.064 484.916 183.064Z" fill="#13DF72"/>
<path d="M80.5316 183.064C85.7636 183.064 90.0037 187.304 90.0037 192.536C90.0037 194.072 89.6436 195.52 88.9876 196.8C87.4276 199.88 84.2276 202 80.5316 202C76.8436 202 73.6436 199.88 72.0836 196.8C71.4356 195.52 71.0677 194.072 71.0677 192.536C71.0677 187.304 75.3076 183.064 80.5316 183.064Z" fill="#13DF72"/>
<path d="M560.212 180.568C560.212 189.536 552.948 196.8 543.988 196.8H527.908C525.764 218.656 507.332 235.736 484.916 235.736C462.5 235.736 444.068 218.656 441.924 196.8H123.524C121.38 218.656 102.956 235.736 80.5316 235.736C58.1156 235.736 39.6836 218.656 37.5396 196.8H20.0196C11.0516 196.8 3.78759 189.536 3.78759 180.568V16.232C3.78759 7.26398 11.0516 0 20.0196 0H470.676C475.476 0 480.228 0.631989 484.812 1.86399C487.238 2.51519 489.619 3.3384 491.938 4.3208L541.076 5.2344C541.582 3.3768 543 1.8744 544.876 1.2896C547.321 0.5272 549.974 1.488 551.364 3.6384L555.083 9.39438C555.835 10.5584 556.137 11.956 555.934 13.3264L553.172 31.9352C552.756 34.7304 550.357 36.8 547.531 36.8H543.883C540.486 36.8 537.842 33.8488 538.215 30.4712L539.924 15H508.214C514.574 21.044 519.437 28.5736 522.3 37L558.26 151.04C559.556 154.856 560.212 158.856 560.212 162.88V180.568H560.212ZM462.116 196.8C464.116 207.56 473.58 215.736 484.916 215.736C496.252 215.736 505.716 207.56 507.716 196.8C507.98 195.416 508.116 193.992 508.116 192.536C508.116 179.744 497.708 169.336 484.916 169.336C472.124 169.336 461.716 179.744 461.716 192.536C461.716 193.992 461.852 195.416 462.116 196.8ZM120.495 130.837C121.12 130.837 121.683 131.185 121.963 131.745L137.3 162.475C139.897 167.678 145.122 170.91 150.936 170.91H388.311C393.405 170.91 398.14 168.383 400.974 164.15C403.808 159.917 404.343 154.577 402.403 149.866C402.128 149.197 402.335 148.66 402.556 148.328C402.779 147.997 403.196 147.601 403.92 147.601H461.715C465.47 147.601 468.515 144.556 468.515 140.801C468.515 137.046 465.47 134.001 461.715 134.001H403.92C398.824 134.001 394.091 136.528 391.256 140.761C388.421 144.994 387.887 150.334 389.827 155.045C390.102 155.715 389.895 156.251 389.672 156.583C389.45 156.915 389.033 157.311 388.309 157.311H150.935C150.309 157.311 149.747 156.963 149.468 156.402L134.13 125.672C131.533 120.47 126.308 117.238 120.493 117.238H64.93C61.1748 117.238 58.13 120.282 58.13 124.038C58.13 127.793 61.1748 130.838 64.93 130.838L120.495 130.837ZM57.7316 196.8C59.7316 207.56 69.1956 215.736 80.5316 215.736C91.8756 215.736 101.332 207.56 103.332 196.8C103.596 195.416 103.732 193.992 103.732 192.536C103.732 179.744 93.3316 169.336 80.5316 169.336C67.7396 169.336 57.3316 179.744 57.3316 192.536C57.3316 193.992 57.4676 195.416 57.7316 196.8ZM17.418 124.037C14.546 124.037 12.218 128.75 12.218 134.563C12.218 140.377 14.546 145.09 17.418 145.09C20.29 145.09 22.618 140.377 22.618 134.563C22.618 128.75 20.29 124.037 17.418 124.037ZM17.418 153.583C14.546 153.583 12.218 158.296 12.218 164.11C12.218 169.923 14.546 174.635 17.418 174.635C20.29 174.635 22.618 169.922 22.618 164.11C22.618 158.297 20.29 153.583 17.418 153.583ZM404.127 94.156L385.778 24.7744C385.034 21.96 382.488 20 379.577 20H34.1292C30.5868 20 27.7156 22.8712 27.7156 26.4144V69.648C27.7156 71.1664 28.2548 72.636 29.2364 73.7952L51.3948 99.9432C52.6132 101.381 54.4028 102.21 56.2884 102.21H397.926C402.135 102.21 405.203 98.2248 404.127 94.156ZM520.22 96.9096L503.299 43.2488C500.584 35.4024 495.145 28.8008 487.964 24.6432C485.35 23.1264 482.55 21.964 479.628 21.1808C476.71 20.3968 473.7 19.9992 470.676 19.9992H411.452C408.808 19.9992 406.865 22.4776 407.495 25.0456L418.585 70.2288C420.579 78.3496 427.657 84.1512 435.93 84.584C442.284 84.916 448.271 87.6488 452.365 92.5184L453.635 94.028C457.996 99.2152 464.428 102.21 471.205 102.21H516.333C519.087 102.21 521.048 99.536 520.22 96.9096ZM548.98 164.007L548.308 158.18C548.077 156.183 546.621 154.543 544.665 154.078L526.298 149.711C522.98 148.922 519.928 151.763 520.476 155.129L521.585 161.945C521.908 163.93 523.44 165.501 525.417 165.874L543.347 169.251C546.512 169.848 549.348 167.206 548.98 164.007Z" fill="#13DF72"/>
<path d="M732.107 261.715C737.965 255.857 737.965 246.359 732.107 240.502L636.648 145.042C630.79 139.184 621.292 139.184 615.434 145.042C609.576 150.9 609.576 160.397 615.434 166.255L700.287 251.108L615.434 335.961C609.576 341.819 609.576 351.316 615.434 357.174C621.292 363.032 630.79 363.032 636.648 357.174L732.107 261.715ZM5.33149e-05 251.108L4.95675e-05 266.108L30.0626 266.108L30.0626 251.108L30.0626 236.108L5.70624e-05 236.108L5.33149e-05 251.108ZM90.1876 251.108L90.1876 266.108L150.313 266.108L150.313 251.108L150.313 236.108L90.1876 236.108L90.1876 251.108ZM210.438 251.108L210.438 266.108L270.563 266.108L270.563 251.108L270.563 236.108L210.438 236.108L210.438 251.108ZM330.688 251.108L330.688 266.108L390.813 266.108L390.813 251.108L390.813 236.108L330.688 236.108L330.688 251.108ZM450.938 251.108L450.938 266.108L511.063 266.108L511.063 251.108L511.063 236.108L450.938 236.108L450.938 251.108ZM571.188 251.108L571.188 266.108L631.313 266.108L631.313 251.108L631.313 236.108L571.188 236.108L571.188 251.108ZM691.438 251.108L691.438 266.108L721.5 266.108L721.5 251.108L721.5 236.108L691.438 236.108L691.438 251.108ZM732.107 261.715C737.965 255.857 737.965 246.359 732.107 240.502L636.648 145.042C630.79 139.184 621.292 139.184 615.434 145.042C609.576 150.9 609.576 160.397 615.434 166.255L700.287 251.108L615.434 335.961C609.576 341.819 609.576 351.316 615.434 357.174C621.292 363.032 630.79 363.032 636.648 357.174L732.107 261.715ZM5.33149e-05 251.108L4.95675e-05 266.108L30.0626 266.108L30.0626 251.108L30.0626 236.108L5.70624e-05 236.108L5.33149e-05 251.108ZM90.1876 251.108L90.1876 266.108L150.313 266.108L150.313 251.108L150.313 236.108L90.1876 236.108L90.1876 251.108ZM210.438 251.108L210.438 266.108L270.563 266.108L270.563 251.108L270.563 236.108L210.438 236.108L210.438 251.108ZM330.688 251.108L330.688 266.108L390.813 266.108L390.813 251.108L390.813 236.108L330.688 236.108L330.688 251.108ZM450.938 251.108L450.938 266.108L511.063 266.108L511.063 251.108L511.063 236.108L450.938 236.108L450.938 251.108ZM571.188 251.108L571.188 266.108L631.313 266.108L631.313 251.108L631.313 236.108L571.188 236.108L571.188 251.108ZM691.438 251.108L691.438 266.108L721.5 266.108L721.5 251.108L721.5 236.108L691.438 236.108L691.438 251.108Z" fill="#13DF72"/>
</svg>
